<?xml version="1.0" encoding="UTF-8"?><svg id="Layer_1" xmlns="http://www.w3.org/2000/svg" xmlns:xlink="http://www.w3.org/1999/xlink" viewBox="0 0 8.88 8.89"><defs><style>.cls-1{fill:none;}.cls-2{fill:url(#linear-gradient);}.cls-3{fill:#c2c2c2;}.cls-4{clip-path:url(#clippath);}</style><clipPath id="clippath"><rect class="cls-1" x="-110.49" y="35.54" width="400.51" height="53.89"/></clipPath><linearGradient id="linear-gradient" x1="-1437.45" y1="1049.03" x2="-1180.05" y2="1049.03" gradientTransform="translate(1425.05 548.06) scale(1.07 -.48)" gradientUnits="userSpaceOnUse"><stop offset="0" stop-color="#141d39"/><stop offset=".12" stop-color="#18213d"/><stop offset=".6" stop-color="#272e4b"/><stop offset="1" stop-color="#2c3350"/></linearGradient></defs><g class="cls-4"><polygon class="cls-2" points="107.98 -.57 -110.49 -.57 -110.49 89.43 164.47 89.43 107.98 -.57"/></g><rect class="cls-3" x=".43" y="3.36" width="1.72" height="5.57"/><path class="cls-3" d="M1.29,2.63c.56,0,1.02-.46,1.02-1.03s-.46-1.03-1.02-1.03S.27,1.04.27,1.61s.46,1.03,1.02,1.03Z"/><path class="cls-3" d="M4.91,6.01c0-.78.36-1.25,1.05-1.25.63,0,.94.45.94,1.25v2.92h1.71v-3.52c0-1.49-.85-2.21-2.03-2.21s-1.68.92-1.68.92v-.75h-1.65v5.57h1.65v-2.92Z"/></svg>