<?xml version="1.0" encoding="UTF-8"?><svg id="Layer_1" xmlns="http://www.w3.org/2000/svg" viewBox="0 0 50.54 11.63"><defs><style>.cls-1{fill:#e8495d;}.cls-2{fill:#fff;}.cls-3{fill:#003a4b;}</style></defs><rect class="cls-3" width="21.23" height="11.63"/><path class="cls-2" d="M9.12,5.35c0,.13,0,.29,0,.35,0,1.1-.36,1.95-1.1,2.65-.67.6-1.54.94-2.46.94-1.98,0-3.5-1.49-3.5-3.46s1.5-3.49,3.48-3.49c1.12,0,2.13.48,2.82,1.32l-1.23.95c-.43-.53-.9-.77-1.53-.77-1.07,0-1.88.85-1.88,1.99s.86,1.97,1.95,1.97c.77,0,1.4-.44,1.67-1.15h-1.64v-1.31h3.42Z"/><path class="cls-2" d="M13.6,7.84v1.31h-3.8V2.47h1.62v5.37h2.17Z"/><path class="cls-2" d="M16.05,5.15h2.22v1.31h-2.22v2.7h-1.62V2.47h3.85v1.31h-2.22v1.36Z"/><circle class="cls-1" cx="18.28" cy="8.28" r=".88"/><path class="cls-3" d="M26.19,3.73c0,.06,0,.13,0,.16,0,.37-.08.62-.28.88-.26.33-.62.5-1.04.5-.78,0-1.36-.6-1.36-1.42s.57-1.43,1.36-1.43c.42,0,.78.17,1.04.5l-.26.21c-.11-.12-.16-.17-.23-.22-.15-.11-.35-.17-.54-.17-.57,0-1,.48-1,1.11s.43,1.11.99,1.11c.31,0,.62-.16.79-.4.11-.14.15-.28.18-.52h-.96v-.3h1.31Z"/><path class="cls-3" d="M27.05,5.22h-.35v-2.75h.75c.59,0,.94.3.94.8,0,.31-.14.56-.4.69-.13.07-.26.1-.51.12l1.07,1.14h-.44l-1.07-1.16v1.16ZM27.39,3.83c.42,0,.64-.19.64-.54s-.21-.53-.59-.53h-.4v1.06h.35Z"/><path class="cls-3" d="M29.4,4.58l-.25.64h-.36l1.04-2.75h.41l1.01,2.75h-.39l-.23-.64h-1.23ZM30.02,2.91l-.52,1.38h1.02l-.5-1.38Z"/><path class="cls-3" d="M31.96,5.22h-.35v-2.75h.73c.65,0,1.01.3,1.01.84,0,.27-.11.52-.29.67-.16.13-.38.19-.68.19h-.42v1.05ZM32.32,3.87c.15,0,.25-.01.34-.05.21-.07.35-.27.35-.5s-.13-.42-.35-.5c-.11-.04-.22-.05-.38-.05h-.31v1.11h.36Z"/><path class="cls-3" d="M34.1,3.69h1.08v.3h-1.08v.94h1.08v.3h-1.43v-2.75h1.43v.3h-1.08v.92Z"/><path class="cls-3" d="M25,8.84v.31h-1.32v-2.75h.35v2.44h.97Z"/><path class="cls-3" d="M25.85,8.52l-.25.64h-.36l1.04-2.75h.41l1.01,2.75h-.39l-.23-.64h-1.23ZM26.47,6.84l-.52,1.38h1.02l-.5-1.38Z"/><path class="cls-3" d="M30.77,6.41h.36l-.84,2.75h-.31l-.61-2.16-.61,2.16h-.31l-.84-2.75h.37l.63,2.11.61-2.11h.33l.59,2.12.63-2.12Z"/><path class="cls-3" d="M33.07,7.62h1.07v.3h-1.07v1.24h-.35v-2.75h1.42v.3h-1.07v.92Z"/><path class="cls-3" d="M34.95,9.16h-.35v-2.75h.35v2.75Z"/><path class="cls-3" d="M35.98,9.16h-.35v-2.75h.75c.59,0,.94.3.94.8,0,.31-.14.56-.4.69-.13.07-.26.1-.51.12l1.07,1.14h-.44l-1.07-1.16v1.16ZM36.33,7.77c.42,0,.64-.19.64-.54s-.21-.53-.59-.53h-.4v1.06h.35Z"/><path class="cls-3" d="M38.25,9.16h-.35v-2.75h.34l1.02,2.06,1.03-2.06h.34v2.75h-.35v-2.01l-1.02,2.04-1.01-2.05v2.02Z"/><path class="cls-3" d="M42.91,9.16h-.35v-2.75h.73c.65,0,1.01.3,1.01.84,0,.27-.11.52-.29.67-.16.13-.38.19-.68.19h-.42v1.05ZM43.26,7.81c.15,0,.25-.01.34-.05.21-.07.35-.27.35-.5s-.13-.42-.35-.5c-.11-.04-.22-.05-.38-.05h-.31v1.11h.36Z"/><path class="cls-3" d="M46.04,8.84v.31h-1.32v-2.75h.35v2.44h.97Z"/><path class="cls-3" d="M47.8,8.84v.31h-1.32v-2.75h.35v2.44h.97Z"/><path class="cls-3" d="M50.23,8.74c-.28.33-.58.47-1.01.47-.38,0-.71-.14-.94-.4-.23-.26-.37-.64-.37-1.02,0-.83.56-1.43,1.32-1.43.25,0,.49.07.69.19.11.07.19.14.32.28l-.24.22c-.27-.28-.47-.38-.76-.38-.56,0-.97.47-.97,1.11s.42,1.11.99,1.11c.3,0,.53-.12.75-.38l.23.23Z"/></svg>