<?xml version="1.0" encoding="UTF-8"?><svg id="Layer_1" xmlns="http://www.w3.org/2000/svg" viewBox="0 0 63.27 13.86"><defs><style>.cls-1{fill:#fff;}.cls-2{fill:#8dce49;}</style></defs><path class="cls-2" d="M1.78,0h59.7c.98,0,1.78.8,1.78,1.78v10.3c0,.98-.8,1.78-1.78,1.78H1.78c-.98,0-1.78-.8-1.78-1.78V1.78C0,.8.8,0,1.78,0Z"/><path class="cls-1" d="M20.16,9.04l-1.41-4.87h1.14l.81,3.38h.04l.9-3.38h.97l.9,3.39h.04l.81-3.39h1.14l-1.41,4.87h-1.01l-.94-3.18h-.04l-.93,3.18h-1.01Z"/><path class="cls-1" d="M27.07,6.93v2.11h-1.02v-4.87h.99v1.86h.04c.08-.22.22-.38.4-.51.19-.12.42-.18.7-.18.26,0,.48.06.67.17.19.11.34.27.45.47.11.21.16.45.16.74v2.32h-1.02v-2.14c0-.23-.06-.4-.17-.53s-.28-.19-.49-.19c-.14,0-.26.03-.37.09s-.19.14-.25.26-.09.25-.09.4Z"/><path class="cls-1" d="M31.32,9.11c-.24,0-.45-.04-.63-.12-.18-.08-.33-.2-.44-.36-.11-.16-.16-.36-.16-.6,0-.2.04-.37.11-.51.08-.14.18-.25.31-.33.13-.08.28-.15.44-.19.17-.04.34-.07.52-.09.21-.02.39-.04.52-.06s.23-.05.29-.09c.06-.04.09-.1.09-.18h0c0-.16-.05-.28-.14-.36-.1-.08-.23-.12-.4-.12-.18,0-.33.04-.44.12-.11.08-.18.18-.22.3l-.95-.08c.05-.22.14-.41.28-.58.14-.16.32-.29.55-.38s.48-.13.78-.13c.21,0,.4.02.59.07.19.05.36.12.5.22.15.1.26.23.35.38s.13.34.13.56v2.46h-.97v-.51h-.03c-.06.11-.14.21-.24.3s-.22.15-.36.2c-.14.05-.3.07-.48.07ZM31.61,8.41c.15,0,.28-.03.4-.09.12-.06.21-.14.27-.24.07-.1.1-.22.1-.34v-.39s-.08.04-.13.06c-.06.02-.12.03-.19.05-.07.01-.14.03-.21.04s-.13.02-.19.03c-.12.02-.23.04-.31.08-.09.04-.16.09-.21.15-.05.06-.07.14-.07.24,0,.14.05.24.15.31.1.07.23.11.39.11Z"/><path class="cls-1" d="M36.16,5.39v.76h-2.22v-.76h2.22ZM34.44,4.52h1.02v3.4c0,.09.01.17.04.22.03.05.07.09.12.11.05.02.11.03.18.03.05,0,.1,0,.14-.01.05,0,.08-.02.11-.02l.16.75c-.05.02-.12.03-.22.06-.09.02-.21.03-.34.04-.25,0-.46-.02-.65-.1-.19-.07-.33-.19-.43-.35s-.15-.35-.15-.59v-3.54Z"/><path class="cls-1" d="M39.84,6.43l-.94.06c-.02-.08-.05-.15-.1-.22-.05-.06-.12-.12-.21-.15-.09-.04-.19-.06-.31-.06-.16,0-.29.03-.4.1-.11.07-.16.15-.16.26,0,.09.04.16.11.22.07.06.19.11.36.15l.67.13c.36.07.63.19.8.35s.26.37.26.64c0,.24-.07.45-.21.63s-.34.32-.58.42-.53.15-.85.15c-.49,0-.88-.1-1.17-.3-.29-.2-.46-.48-.51-.83l1.01-.05c.03.15.1.26.22.34.12.08.27.12.45.12s.32-.03.43-.1c.11-.07.17-.16.17-.27,0-.09-.04-.17-.12-.23-.08-.06-.2-.1-.36-.14l-.64-.13c-.36-.07-.63-.19-.8-.37-.18-.18-.26-.4-.26-.67,0-.23.06-.44.19-.61.13-.17.31-.3.55-.39.23-.09.51-.14.83-.14.47,0,.83.1,1.1.29.27.19.42.46.47.8Z"/><path class="cls-1" d="M41.63,9.11c-.24,0-.45-.04-.63-.12-.18-.08-.33-.2-.44-.36-.11-.16-.16-.36-.16-.6,0-.2.04-.37.11-.51.08-.14.18-.25.31-.33.13-.08.28-.15.44-.19.17-.04.34-.07.52-.09.21-.02.39-.04.52-.06s.23-.05.29-.09c.06-.04.09-.1.09-.18h0c0-.16-.05-.28-.14-.36-.1-.08-.23-.12-.4-.12-.18,0-.33.04-.44.12-.11.08-.18.18-.22.3l-.95-.08c.05-.22.14-.41.28-.58.14-.16.32-.29.55-.38s.48-.13.78-.13c.21,0,.4.02.59.07.19.05.36.12.5.22.15.1.26.23.35.38s.13.34.13.56v2.46h-.97v-.51h-.03c-.06.11-.14.21-.24.3s-.22.15-.36.2c-.14.05-.3.07-.48.07ZM41.92,8.41c.15,0,.28-.03.4-.09.12-.06.21-.14.27-.24.07-.1.1-.22.1-.34v-.39s-.08.04-.13.06c-.06.02-.12.03-.19.05-.07.01-.14.03-.21.04s-.13.02-.19.03c-.12.02-.23.04-.31.08-.09.04-.16.09-.21.15-.05.06-.07.14-.07.24,0,.14.05.24.15.31.1.07.23.11.39.11Z"/><path class="cls-1" d="M44.5,10.41v-5.02h1.01v.61h.05c.04-.1.11-.2.2-.3.09-.1.2-.19.34-.26.14-.07.31-.1.52-.1.27,0,.52.07.74.21.23.14.41.35.55.62.14.28.2.63.2,1.04s-.07.75-.2,1.03c-.13.28-.31.49-.54.63-.23.14-.48.22-.76.22-.2,0-.37-.03-.51-.1-.14-.06-.25-.15-.34-.25s-.16-.2-.2-.3h-.03v1.95h-1.02ZM45.5,7.22c0,.22.03.41.09.57.06.16.15.29.26.38.12.09.26.13.42.13s.31-.05.42-.14c.12-.09.2-.22.26-.38.06-.16.09-.35.09-.56s-.03-.4-.09-.56-.15-.29-.26-.38-.26-.14-.43-.14-.31.04-.42.13c-.11.09-.2.21-.26.37-.06.16-.09.35-.09.57Z"/><path class="cls-1" d="M48.78,10.41v-5.02h1.01v.61h.05c.04-.1.11-.2.2-.3.09-.1.2-.19.34-.26.14-.07.31-.1.52-.1.27,0,.52.07.74.21.23.14.41.35.55.62.14.28.2.63.2,1.04s-.07.75-.2,1.03c-.13.28-.31.49-.54.63-.23.14-.48.22-.76.22-.2,0-.37-.03-.51-.1-.14-.06-.25-.15-.34-.25s-.16-.2-.2-.3h-.03v1.95h-1.02ZM49.78,7.22c0,.22.03.41.09.57.06.16.15.29.26.38.12.09.26.13.42.13s.31-.05.42-.14c.12-.09.2-.22.26-.38.06-.16.09-.35.09-.56s-.03-.4-.09-.56-.15-.29-.26-.38-.26-.14-.43-.14-.31.04-.42.13c-.11.09-.2.21-.26.37-.06.16-.09.35-.09.57Z"/><path class="cls-1" d="M14.48,7.41s-.63-.31-.74-.35c-.04-.02-.09-.03-.14-.03-.08,0-.15.04-.21.12-.06.09-.25.31-.3.37,0,0-.02.02-.02.02,0,0-.1-.04-.13-.05-.66-.29-1.16-.97-1.23-1.09,0-.02-.01-.02-.01-.02,0,0,.02-.03.04-.04.03-.03.07-.08.1-.12.02-.02.03-.04.05-.06.05-.06.07-.1.1-.16v-.03c.08-.13.02-.23,0-.27-.01-.03-.27-.65-.3-.72-.07-.16-.15-.23-.28-.23-.01,0,0,0-.05,0-.06,0-.37.04-.51.13-.15.09-.4.39-.4.91,0,.47.3.91.42,1.08,0,0,0,.01.02.03.49.71,1.1,1.24,1.71,1.49.59.24.88.26,1.04.26h0c.07,0,.12,0,.17,0h.03c.21-.02.66-.25.76-.54.08-.22.1-.47.05-.56-.04-.06-.1-.09-.18-.13Z"/><path class="cls-1" d="M12.54,2.58c-2.28,0-4.13,1.84-4.13,4.1,0,.73.2,1.45.57,2.07l-.71,2.09s0,.08.03.11c.02.02.05.03.08.03.01,0,.02,0,.03,0l2.18-.69c.6.32,1.27.49,1.96.49,2.28,0,4.13-1.84,4.13-4.1s-1.85-4.1-4.13-4.1ZM12.54,9.92c-.64,0-1.27-.19-1.8-.54-.02-.01-.04-.02-.06-.02-.01,0-.02,0-.03,0l-1.09.35.35-1.04s0-.07-.02-.1c-.41-.56-.62-1.21-.62-1.9,0-1.79,1.47-3.25,3.27-3.25s3.27,1.46,3.27,3.25c0,1.79-1.47,3.25-3.27,3.25Z"/></svg>