<?xml version="1.0" encoding="UTF-8"?><svg id="Layer_1" xmlns="http://www.w3.org/2000/svg" xmlns:xlink="http://www.w3.org/1999/xlink" viewBox="0 0 11.08 8.89"><defs><style>.cls-1{fill:none;}.cls-2{fill:url(#linear-gradient);}.cls-3{fill:#c2c2c2;}.cls-4{clip-path:url(#clippath);}</style><clipPath id="clippath"><rect class="cls-1" x="-122.23" y="35.54" width="400.51" height="53.89"/></clipPath><linearGradient id="linear-gradient" x1="-1449.19" y1="1049.03" x2="-1191.79" y2="1049.03" gradientTransform="translate(1425.85 548.06) scale(1.07 -.48)" gradientUnits="userSpaceOnUse"><stop offset="0" stop-color="#141d39"/><stop offset=".12" stop-color="#18213d"/><stop offset=".6" stop-color="#272e4b"/><stop offset="1" stop-color="#2c3350"/></linearGradient></defs><g class="cls-4"><polygon class="cls-2" points="96.24 -.57 -122.23 -.57 -122.23 89.43 152.73 89.43 96.24 -.57"/></g><path class="cls-3" d="M8.78,1.07H2.32C1.05,1.07.02,2.1.02,3.36v3.23c0,1.27,1.03,2.3,2.3,2.3h6.46c1.27,0,2.3-1.03,2.3-2.3v-3.23c0-1.27-1.03-2.3-2.3-2.3ZM7.23,5.14l-3.02,1.44c-.08.04-.17-.02-.17-.11v-2.97c0-.09.1-.15.18-.11l3.02,1.53c.09.05.09.17,0,.22Z"/></svg>